<svg width="14" height="10" viewBox="0 0 14 10" fill="none" xmlns="http://www.w3.org/2000/svg">
<path d="M5.486 9.73C5.35474 9.73027 5.22471 9.70461 5.10338 9.6545C4.98206 9.60439 4.87182 9.53082 4.779 9.438L0.537003 5.195C0.44143 5.10282 0.365172 4.99253 0.312678 4.87056C0.260185 4.7486 0.232507 4.6174 0.231261 4.48462C0.230014 4.35184 0.255223 4.22015 0.305417 4.09722C0.355611 3.97429 0.429784 3.86258 0.52361 3.76863C0.617435 3.67467 0.729033 3.60034 0.851893 3.54997C0.974752 3.4996 1.10641 3.4742 1.23919 3.47526C1.37197 3.47632 1.50321 3.50381 1.62525 3.55614C1.74729 3.60846 1.85769 3.68456 1.95 3.78L5.485 7.315L11.85 0.952001C12.0375 0.76436 12.2919 0.658892 12.5571 0.658798C12.8224 0.658705 13.0769 0.763993 13.2645 0.951501C13.4521 1.13901 13.5576 1.39338 13.5577 1.65865C13.5578 1.92392 13.4525 2.17836 13.265 2.366L6.193 9.438C6.10018 9.53082 5.98995 9.60439 5.86862 9.6545C5.7473 9.70461 5.61727 9.73027 5.486 9.73Z" fill="#2FAB73"/>
</svg>
